<svg width="302" height="36" viewBox="0 0 302 36" fill="none" xmlns="http://www.w3.org/2000/svg">
<path d="M22.2812 21.2656H8.61719V35H0.671875V0.875H24.6719V6.96875H8.61719V15.1719H22.2812V21.2656ZM39.8828 21.3125H36.2266V35H28.2812V0.875H36.2266V14.2344H38.9219L46.4219 0.875H56.2656L45.6953 16.3203L57.1797 35H47.5234L39.8828 21.3125ZM87.8359 35H79.9375L67.4453 13.25L67.3047 13.2969V35H59.3594V0.875H67.3047L79.7969 22.625L79.9375 22.5781V0.875H87.8359V35ZM120.156 30.2891C119 31.6641 117.32 32.875 115.117 33.9219C112.914 34.9688 110.148 35.4922 106.82 35.4922C102.602 35.4922 99.1719 34.1953 96.5312 31.6016C93.9062 29.0078 92.5938 25.6406 92.5938 21.5V14.375C92.5938 10.2656 93.875 6.90625 96.4375 4.29688C99.0156 1.6875 102.328 0.382812 106.375 0.382812C110.766 0.382812 114.055 1.39844 116.242 3.42969C118.43 5.46094 119.672 8.23438 119.969 11.75L119.922 11.8906H112.492C112.227 10.0938 111.641 8.74219 110.734 7.83594C109.844 6.92969 108.477 6.47656 106.633 6.47656C104.789 6.47656 103.305 7.21094 102.18 8.67969C101.055 10.1328 100.492 12.0156 100.492 14.3281V21.5C100.492 23.875 101.047 25.7891 102.156 27.2422C103.266 28.6797 104.82 29.3984 106.82 29.3984C108.273 29.3984 109.414 29.2812 110.242 29.0469C111.07 28.8125 111.727 28.5 112.211 28.1094V22.7188H106.844V17.4688H120.156V30.2891ZM133.398 35H125.5V28.3438H133.398V35ZM157.633 25.9531C157.633 24.75 157.234 23.8203 156.438 23.1641C155.641 22.5078 154.211 21.8125 152.148 21.0781C147.836 19.7188 144.641 18.2656 142.562 16.7188C140.484 15.1562 139.445 12.9062 139.445 9.96875C139.445 7.10938 140.68 4.79688 143.148 3.03125C145.633 1.26562 148.781 0.382812 152.594 0.382812C156.375 0.382812 159.469 1.35938 161.875 3.3125C164.297 5.25 165.469 7.75 165.391 10.8125L165.344 10.9531H157.656C157.656 9.59375 157.195 8.49219 156.273 7.64844C155.352 6.78906 154.078 6.35938 152.453 6.35938C150.859 6.35938 149.609 6.71094 148.703 7.41406C147.797 8.11719 147.344 8.98438 147.344 10.0156C147.344 11.0156 147.797 11.8203 148.703 12.4297C149.625 13.0234 151.344 13.7734 153.859 14.6797C157.734 15.8359 160.648 17.2578 162.602 18.9453C164.57 20.6328 165.555 22.9531 165.555 25.9062C165.555 28.9062 164.383 31.2578 162.039 32.9609C159.711 34.6484 156.617 35.4922 152.758 35.4922C148.883 35.4922 145.531 34.5234 142.703 32.5859C139.875 30.6328 138.5 27.8281 138.578 24.1719L138.625 24.0312H146.336C146.336 26 146.867 27.4062 147.93 28.25C148.992 29.0938 150.602 29.5156 152.758 29.5156C154.398 29.5156 155.617 29.1875 156.414 28.5312C157.227 27.875 157.633 27.0156 157.633 25.9531ZM198.062 21.0078C198.062 25.2109 196.727 28.6797 194.055 31.4141C191.398 34.1328 187.922 35.4922 183.625 35.4922C179.297 35.4922 175.789 34.1328 173.102 31.4141C170.414 28.6797 169.07 25.2109 169.07 21.0078V14.8672C169.07 10.6797 170.406 7.21875 173.078 4.48438C175.766 1.75 179.266 0.382812 183.578 0.382812C187.859 0.382812 191.344 1.75 194.031 4.48438C196.719 7.21875 198.062 10.6797 198.062 14.8672V21.0078ZM190.164 14.8203C190.164 12.3828 189.586 10.3828 188.43 8.82031C187.289 7.25781 185.672 6.47656 183.578 6.47656C181.438 6.47656 179.797 7.25781 178.656 8.82031C177.531 10.3672 176.969 12.3672 176.969 14.8203V21.0078C176.969 23.4766 177.539 25.4922 178.68 27.0547C179.836 28.6172 181.484 29.3984 183.625 29.3984C185.703 29.3984 187.312 28.6172 188.453 27.0547C189.594 25.4922 190.164 23.4766 190.164 21.0078V14.8203ZM229.234 23.0234L229.281 23.1641C229.125 27.1641 227.938 30.2188 225.719 32.3281C223.516 34.4375 220.312 35.4922 216.109 35.4922C211.891 35.4922 208.461 34.1953 205.82 31.6016C203.18 29.0078 201.859 25.6406 201.859 21.5V14.375C201.859 10.25 203.125 6.89062 205.656 4.29688C208.203 1.6875 211.508 0.382812 215.57 0.382812C219.883 0.382812 223.18 1.46875 225.461 3.64062C227.742 5.8125 229.031 8.89844 229.328 12.8984L229.281 13.0391H221.57C221.461 10.8203 220.961 9.17188 220.07 8.09375C219.195 7.01562 217.695 6.47656 215.57 6.47656C213.773 6.47656 212.359 7.20312 211.328 8.65625C210.297 10.0938 209.781 11.9844 209.781 14.3281V21.5C209.781 23.8594 210.344 25.7656 211.469 27.2188C212.594 28.6719 214.141 29.3984 216.109 29.3984C218.016 29.3984 219.367 28.8906 220.164 27.875C220.961 26.8594 221.414 25.2422 221.523 23.0234H229.234ZM241.938 35H234.039V0.875H241.938V35ZM266.406 28.3672H255.648L253.727 35H245.758L256.773 0.875H265.281L276.32 35H268.352L266.406 28.3672ZM257.406 22.2734H264.648L261.086 10.0625H260.945L257.406 22.2734ZM286.68 28.9062H301.375V35H278.734V0.875H286.68V28.9062Z" fill="#666"/>
</svg>
