<svg width="250" height="250" viewBox="0 0 250 250" fill="none" xmlns="http://www.w3.org/2000/svg">
<rect width="250" height="250" fill="#1D212A"/>
<path fill-rule="evenodd" clip-rule="evenodd" d="M111.344 68.3953C111.455 68.3962 111.558 68.3456 111.628 68.2604C114.206 65.1263 119.219 63 124.981 63C130.7 63 135.681 65.0952 138.276 68.1915C138.346 68.2757 138.45 68.3251 138.561 68.3247C138.903 68.3235 139.245 68.3216 139.587 68.3197C140.134 68.3166 140.681 68.3135 141.227 68.3135C145.231 68.3135 148.636 70.4195 149.896 73.358C149.954 73.4953 150.088 73.5877 150.238 73.5876C151.478 73.5866 152.718 73.5789 153.958 73.5712C155.279 73.5629 156.599 73.5546 157.916 73.5546C161.107 73.5546 163.759 75.4542 164.292 77.9536C164.329 78.1293 164.481 78.2622 164.661 78.2622C166.116 78.2619 167.571 78.2601 169.025 78.2582H169.026C170.585 78.2562 172.145 78.2543 173.704 78.2543C175.754 78.2543 177.415 79.6206 177.415 81.306C177.415 82.9914 175.754 84.3577 173.704 84.3577C158.551 84.3577 143.397 84.3583 128.244 84.3589C126.712 84.359 125.484 85.6134 125.527 87.1325L126.4 118.143C126.44 119.567 127.59 120.705 129.019 120.834C135.411 121.415 140.8 123.293 143.856 125.854C143.946 125.93 144.058 125.971 144.175 125.971C144.684 125.97 145.194 125.968 145.704 125.966H145.712C146.494 125.963 147.276 125.96 148.059 125.96C150.074 125.96 151.983 126.221 153.69 126.687C156.046 127.33 159.529 125.585 159.529 123.16V111.3C159.529 109.81 158.312 108.602 156.81 108.602C149.86 108.602 142.526 108.603 133.614 108.603C132.144 108.603 130.952 107.844 130.952 106.909C130.952 105.973 132.144 105.215 133.614 105.215C134.74 105.215 135.838 105.217 136.937 105.219H136.943C138.077 105.222 139.009 104.358 139.657 103.434C140.816 101.781 143.118 100.654 145.768 100.654H148.539C149.419 100.654 150.212 100.171 150.914 99.6455C156.8 95.2415 165.847 95.4708 170.226 99.4482C170.334 99.5465 170.494 99.6057 170.663 99.6052C170.864 99.6046 171.065 99.6037 171.266 99.6028C171.663 99.601 172.059 99.5993 172.456 99.5993C175.278 99.5993 177.69 100.716 178.661 102.293C178.758 102.45 178.961 102.559 179.19 102.558C180.023 102.557 180.855 102.553 181.687 102.549C182.644 102.545 183.601 102.54 184.556 102.54C186.769 102.54 188.624 103.515 189.12 104.826C189.196 105.026 189.426 105.181 189.701 105.181C190.488 105.181 190.861 105.18 191.234 105.179C191.676 105.178 192.118 105.177 193.248 105.177C194.734 105.177 195.939 105.943 195.939 106.889C195.939 107.835 194.734 108.601 193.248 108.601C182.774 108.601 174.48 108.601 166.426 108.602C164.924 108.602 163.707 109.81 163.707 111.3V128.685C163.707 130.088 164.856 131.224 166.27 131.218H166.271C168.16 131.209 170.048 131.201 171.932 131.201C176.443 131.201 180.2 133.056 181.024 135.51C181.1 135.738 181.299 135.909 181.533 135.909C184.639 135.908 187.746 135.917 190.852 135.926C192.886 135.932 194.919 135.937 196.952 135.941C198.636 135.944 200 137.298 200 138.968C200 140.638 198.636 141.992 196.952 141.992H129.868C128.336 141.992 127.108 143.246 127.15 144.765L127.887 170.929C127.992 174.656 130.403 177.932 133.948 179.165L148.568 184.252C149.531 184.587 149.288 186 148.268 186H99.5038C98.4762 186 98.2418 184.571 99.2164 184.248L114.603 179.142C118.258 177.93 120.74 174.555 120.791 170.731L121.136 144.726C121.156 143.222 119.933 141.992 118.418 141.992H53.0476C51.3645 141.992 50 140.636 50 138.966C50 137.296 51.3645 135.943 53.0476 135.943H67.7299C68.0718 135.943 68.4753 135.886 68.5702 135.561C69.3042 133.042 73.1135 131.123 77.7024 131.123C78.4649 131.123 79.3268 131.123 80.2483 131.123C81.747 131.124 82.9641 129.922 82.9692 128.434L83.0392 108.02C83.0443 106.527 81.8258 105.313 80.3206 105.313C74.1679 105.313 67.6071 105.313 59.8509 105.313C58.365 105.313 57.1605 104.546 57.1605 103.601C57.1605 102.655 58.365 101.888 59.8509 101.888C60.9816 101.888 61.4236 101.889 61.8656 101.891H61.8683C62.2403 101.892 62.6133 101.893 63.3979 101.893C63.6735 101.893 63.9038 101.738 63.9794 101.538C64.475 100.226 66.3302 99.2516 68.543 99.2516C69.4983 99.2516 70.4552 99.2562 71.4129 99.2609C72.2447 99.2648 73.077 99.2689 73.9091 99.2699C74.1388 99.2702 74.3417 99.1616 74.4386 99.0044C75.4097 97.4275 77.8218 96.3109 80.6437 96.3109C81.0401 96.3109 81.4366 96.3127 81.8331 96.3144C82.034 96.3153 82.235 96.3162 82.4359 96.3168C82.6052 96.3174 82.765 96.2581 82.8733 96.1598C87.2528 92.1825 96.2996 91.9532 102.185 96.3571C102.887 96.8829 103.681 97.3659 104.561 97.3659H107.331C109.981 97.3659 112.283 98.4925 113.443 100.146C114.091 101.069 115.022 101.933 116.156 101.931H116.162C117.261 101.929 118.36 101.926 119.485 101.926C120.395 101.926 121.714 101.208 121.725 100.306L121.779 96.2675V87.0574C121.779 85.5673 120.562 84.3593 119.06 84.3593C104.793 84.36 90.5248 84.3605 76.2571 84.3605C74.2298 84.3605 72.5862 83.0087 72.5862 81.3412C72.5862 79.6737 74.2298 78.3219 76.2571 78.3219C77.8129 78.3219 79.3694 78.326 80.9261 78.3301C82.374 78.3339 83.8221 78.3377 85.2696 78.3382C85.4554 78.3383 85.6095 78.1985 85.6421 78.017C86.1024 75.4478 88.7941 73.476 92.0456 73.476C93.3726 73.476 94.6998 73.4777 96.027 73.4793H96.03C97.2764 73.4809 98.5227 73.4825 99.7691 73.4827C99.9171 73.4827 100.049 73.3929 100.11 73.2587C101.402 70.3721 104.776 68.3135 108.734 68.3135C109.192 68.3135 109.648 68.3341 110.104 68.3546C110.516 68.3732 110.929 68.3919 111.344 68.3953ZM119.485 105.314C120.376 105.314 121.65 106.041 121.638 106.924L121.487 118.29C121.469 119.691 120.371 120.834 118.971 121.015C113.249 121.754 108.477 123.551 105.698 125.922C105.608 126 105.494 126.043 105.376 126.042C104.882 126.039 104.842 126.021 104.801 126.002C104.756 125.981 104.711 125.96 104.047 125.96C98.3975 125.96 93.5807 128.009 91.722 130.885C91.6256 131.034 91.467 131.129 91.2927 131.129C90.8251 131.129 90.324 131.129 89.7978 131.129C88.3283 131.128 87.1253 129.969 87.0816 128.511L86.4684 108.092C86.4228 106.571 87.6529 105.314 89.1863 105.314H89.668C98.6884 105.314 107.709 105.314 119.485 105.314Z" fill="#C6FFD9"/>
</svg>
